<svg xmlns="http://www.w3.org/2000/svg" width="1200" height="630" viewBox="0 0 1200 630" role="img" aria-labelledby="title desc">
  <title id="title">Jogo da Velha Online</title>
  <desc id="desc">Imagem de compartilhamento do Jogo da Velha Online com tabuleiro, X azul e O vermelho.</desc>
  <defs>
    <linearGradient id="bg" x1="0" y1="0" x2="1" y2="1">
      <stop offset="0" stop-color="#18181b"/>
      <stop offset="0.52" stop-color="#09090b"/>
      <stop offset="1" stop-color="#111827"/>
    </linearGradient>
    <linearGradient id="accent" x1="0" y1="0" x2="1" y2="0">
      <stop offset="0" stop-color="#3b82f6"/>
      <stop offset="1" stop-color="#f43f5e"/>
    </linearGradient>
    <filter id="shadow" x="-20%" y="-20%" width="140%" height="140%">
      <feDropShadow dx="0" dy="18" stdDeviation="22" flood-color="#000000" flood-opacity="0.45"/>
    </filter>
  </defs>
  <rect width="1200" height="630" fill="url(#bg)"/>
  <path d="M0 0h1200v14H0z" fill="url(#accent)"/>
  <g opacity="0.2" stroke="#ffffff" stroke-width="1">
    <path d="M90 0v630M180 0v630M270 0v630M360 0v630M450 0v630M540 0v630M630 0v630M720 0v630M810 0v630M900 0v630M990 0v630M1080 0v630"/>
    <path d="M0 90h1200M0 180h1200M0 270h1200M0 360h1200M0 450h1200M0 540h1200"/>
  </g>
  <g transform="translate(100 112)">
    <text x="0" y="52" fill="#f8fafc" font-family="Inter, Arial, sans-serif" font-size="58" font-weight="800">Jogo da Velha Online</text>
    <text x="0" y="118" fill="#cbd5e1" font-family="Inter, Arial, sans-serif" font-size="30" font-weight="500">Jogue grátis contra o bot ou desafie amigos</text>
    <text x="0" y="174" fill="#fbbf24" font-family="Inter, Arial, sans-serif" font-size="26" font-weight="700">3 peças por jogador. Sem empate.</text>
  </g>
  <g transform="translate(710 104)" filter="url(#shadow)">
    <rect x="0" y="0" width="360" height="360" rx="30" fill="#18181b" stroke="#3f3f46" stroke-width="3"/>
    <path d="M120 34v292M240 34v292M34 120h292M34 240h292" stroke="#71717a" stroke-width="12" stroke-linecap="round"/>
    <g stroke-linecap="round" stroke-linejoin="round" fill="none">
      <path d="M58 58l72 72M130 58l-72 72" stroke="#3b82f6" stroke-width="18"/>
      <path d="M230 230l72 72M302 230l-72 72" stroke="#3b82f6" stroke-width="18"/>
      <circle cx="180" cy="180" r="43" stroke="#f43f5e" stroke-width="18"/>
      <circle cx="300" cy="60" r="43" stroke="#f43f5e" stroke-width="18"/>
    </g>
  </g>
  <g transform="translate(100 456)">
    <rect width="306" height="58" rx="12" fill="#2563eb"/>
    <text x="28" y="38" fill="#ffffff" font-family="Inter, Arial, sans-serif" font-size="24" font-weight="800">jogodavelha.tdamiao.com</text>
  </g>
</svg>
